<svg xmlns="http://www.w3.org/2000/svg" width="56" height="56" viewBox="0 0 56 56" fill="none"><circle cx="28" cy="28" r="28" fill="#1424A1"></circle><path d="M26.6389 24.4708L26.6732 24.4364V24.3675C26.6732 24.3331 26.6732 24.2641 26.6389 24.1952V24.0231C26.6389 23.9887 26.6389 23.9541 26.6045 23.8854L26.6389 23.851C26.6389 23.8167 26.6732 23.8167 26.6389 23.782C26.6045 23.7131 26.6045 23.6443 26.6045 23.5408C26.6045 23.4374 26.6045 23.2995 26.5355 23.1961C26.5699 23.1272 26.5355 23.0584 26.5355 23.0238V22.8861C26.5355 22.8518 26.5355 22.7828 26.5012 22.7484C26.5012 22.7484 26.5012 22.7141 26.4668 22.7141C26.4668 22.6107 26.4668 22.5418 26.4324 22.5074C26.4324 22.5074 26.4324 22.473 26.3981 22.473C26.3981 22.4387 26.3637 22.404 26.3291 22.3697V22.3353C26.3635 22.3353 26.3635 22.301 26.3635 22.2663V22.0943C26.3635 22.0599 26.3635 22.0253 26.3291 21.9909C26.2947 21.8876 26.2947 21.7497 26.2258 21.6809L26.2601 21.6466C26.2601 21.6122 26.2601 21.5776 26.2258 21.5776V21.5086C26.2258 21.4396 26.2258 21.3709 26.1914 21.2673C26.1914 21.2673 26.1914 21.233 26.157 21.233C26.157 21.1986 26.1227 21.1986 26.1227 21.164C26.1227 21.164 26.1227 21.1296 26.0883 21.1296C26.0883 21.0953 26.0539 21.0607 26.0539 21.0263C26.0539 20.9573 26.0196 20.923 26.0196 20.8886C26.0196 20.8542 25.9852 20.8542 25.9852 20.8542V20.8199L25.9508 20.7855C25.9165 20.7511 25.8819 20.7511 25.8819 20.7165C25.8819 20.6822 25.8475 20.6475 25.8129 20.6475C25.7785 20.6475 25.7785 20.6475 25.7439 20.6132C25.7439 20.6132 25.7096 20.6132 25.7096 20.5788L25.6752 20.5445H25.6065L25.5721 20.5101H25.5377C25.5034 20.4757 25.4344 20.4411 25.3654 20.4411L25.2609 20.4743H25.1229C25.0886 20.4743 25.054 20.4399 25.0196 20.4399C24.9852 20.4055 24.9163 20.4055 24.8819 20.3709C24.8475 20.3709 24.7786 20.3709 24.7442 20.3366H24.7098C24.7098 20.3366 24.6755 20.3022 24.6409 20.3022H24.6065C24.6065 20.3022 24.5721 20.3022 24.5721 20.3366C24.5378 20.3022 24.5032 20.3022 24.4344 20.3022C24.2967 20.3022 24.0898 20.2678 23.9177 20.2332C23.8834 20.2332 23.8834 20.1989 23.8144 20.1989H23.298V20.1645C23.298 20.1301 23.2636 20.1301 23.229 20.1301H23.1946C23.1256 20.1301 23.0569 20.0958 22.9879 20.0958C22.9879 20.0614 22.9536 20.0614 22.8846 20.0614H22.8502C22.8159 20.027 22.7813 19.9924 22.7813 19.9924H22.0579C21.9889 19.9924 21.9546 19.9924 21.9202 19.9581C21.8512 19.9581 21.8169 19.9237 21.7479 19.9237H21.3343C21.2653 19.8893 21.0586 19.8893 20.9209 19.8893C20.9209 19.8893 20.8866 19.855 20.852 19.855H20.4735C20.2668 19.855 20.0255 19.855 19.7498 19.8893C19.7155 19.8893 19.7155 19.8893 19.6809 19.9237C19.6465 19.9237 19.6119 19.8893 19.5432 19.8893H19.4398C19.4055 19.8893 19.4055 19.8893 19.3709 19.9237H18.8885C18.6819 19.9237 18.4752 19.9581 18.2685 19.9581C18.1652 19.9581 18.0619 19.9924 17.9585 19.9924H17.8552C17.8208 19.9924 17.7862 19.9924 17.7518 20.0268C17.7175 20.0268 17.6829 20.0268 17.6485 20.0612H17.3729C17.3385 20.0612 17.3385 20.0612 17.3385 20.0955H17.2351C17.2008 20.0955 17.1318 20.1299 17.0974 20.1299H16.9941C16.9941 20.1299 16.9597 20.1299 16.9597 20.1643C16.9254 20.1643 16.9254 20.1643 16.8908 20.1986H16.8564C16.822 20.1986 16.7874 20.233 16.7531 20.233C16.6841 20.233 16.6497 20.233 16.5808 20.2674C16.5464 20.2674 16.5464 20.3017 16.5118 20.3363H16.4774C16.4774 20.3363 16.4431 20.3363 16.4084 20.3707C16.3051 20.4397 16.2018 20.5084 16.1328 20.612C16.0984 20.6463 16.0984 20.6463 16.0984 20.681C16.0641 20.681 16.0295 20.681 16.0295 20.7153L15.8918 20.853C15.8574 20.8874 15.8574 20.8874 15.8228 20.922L15.6507 21.0941V21.1284C15.6507 21.1284 15.6164 21.1628 15.6164 21.1974V21.2664C15.582 21.2664 15.582 21.3007 15.5474 21.3007V21.4041C15.5474 21.4041 15.513 21.4041 15.513 21.4384C15.4786 21.4728 15.4786 21.5074 15.4786 21.5418C15.4443 21.6108 15.4443 21.7141 15.4097 21.8518C15.4097 21.9208 15.4097 21.9895 15.3753 22.0241L15.3409 22.1274C15.3066 22.2308 15.3066 22.2998 15.3066 22.4031L15.2722 22.4375V22.4718C15.2722 22.5408 15.3066 22.6095 15.3066 22.6441C15.3066 22.6441 15.2722 22.6785 15.2722 22.7475C15.2722 22.7818 15.2722 22.7818 15.3066 22.7818C15.3066 22.7818 15.3066 22.8162 15.2722 22.8508V23.1611C15.2722 23.1954 15.2722 23.1954 15.3066 23.23V23.2644C15.3066 23.2988 15.2722 23.2988 15.2722 23.3677L15.3042 23.9195V24.0572C15.3042 24.1949 15.2698 24.3329 15.3042 24.5052V24.6085C15.3042 24.6085 15.3042 24.6429 15.3385 24.6429V24.7116C15.3042 24.7116 15.2696 24.746 15.3042 24.8149C15.3042 24.8149 15.3042 24.8493 15.3385 24.8493V26.6404C15.3385 26.6748 15.3042 26.7094 15.3385 26.7094C15.3385 26.7094 15.3385 26.7437 15.3729 26.7437V26.7781C15.3385 26.8125 15.3729 26.8471 15.3729 26.8814V26.9158C15.3729 27.0881 15.3729 27.2948 15.4073 27.5015C15.4073 27.5015 15.4073 27.5358 15.3729 27.5358C15.3729 27.5702 15.3729 27.6048 15.4073 27.6048V27.7769C15.4073 27.8458 15.4073 27.9146 15.4416 27.9835C15.4416 28.0179 15.476 28.0525 15.476 28.0869V28.1556C15.476 28.19 15.476 28.259 15.5104 28.3623C15.5104 28.3967 15.5104 28.4313 15.5447 28.4656C15.5447 28.5 15.5791 28.569 15.5791 28.6379C15.5791 28.7413 15.6135 28.8446 15.6135 28.948V29.1203C15.6135 29.2236 15.6478 29.2926 15.6135 29.3959C15.6135 29.4303 15.6135 29.4303 15.6478 29.4649C15.6822 29.4992 15.6822 29.5339 15.6822 29.5682V29.7403H15.7166C15.7166 29.7403 15.7166 29.7747 15.7509 29.8093V29.8782C15.7509 29.9126 15.7509 29.9472 15.7853 29.9816C15.7853 29.9816 15.7853 30.0159 15.8197 30.0505V30.0849C15.8197 30.0849 15.8197 30.1193 15.854 30.1193C15.854 30.2226 15.8884 30.3259 15.8884 30.4293C15.8884 30.4637 15.8884 30.4983 15.9228 30.4983C15.9228 30.4983 15.9228 30.5326 15.9571 30.6016C15.9571 30.636 15.9915 30.7049 15.9915 30.7049V30.9803C15.9915 31.0493 15.9915 31.1526 16.0259 31.2216C16.0259 31.256 16.0259 31.2906 16.0602 31.325V31.4283L16.0946 31.5316C16.0946 31.566 16.1289 31.635 16.1289 31.6693V31.8416C16.1289 31.876 16.1633 31.876 16.1979 31.9106V31.945C16.1979 31.9794 16.1979 32.014 16.2323 32.0483C16.2323 32.0483 16.2323 32.0827 16.2667 32.0827C16.2667 32.186 16.301 32.2204 16.301 32.2204V32.2548C16.3354 32.3237 16.3354 32.3581 16.3354 32.3581V32.4271C16.3354 32.4614 16.3354 32.4614 16.3697 32.496C16.3697 32.496 16.3697 32.5304 16.4041 32.5304V32.6681C16.4041 32.7025 16.4041 32.7371 16.4385 32.7371C16.4385 32.7714 16.4728 32.7714 16.4728 32.8061V32.875C16.4728 32.9094 16.5072 32.9094 16.5072 32.944V33.013C16.5072 33.0819 16.5416 33.1853 16.6105 33.2542C16.6449 33.2886 16.6449 33.3232 16.6795 33.392C16.6795 33.4263 16.7139 33.4609 16.7139 33.4953C16.7139 33.5297 16.7139 33.5297 16.7482 33.5643C16.7482 33.5986 16.7826 33.5986 16.7826 33.5986C16.7826 33.633 16.7826 33.6676 16.817 33.6676C16.817 33.702 16.8513 33.7366 16.886 33.7366C16.886 33.7709 16.9203 33.8055 16.9549 33.8055C16.9549 33.8399 16.9549 33.9432 17.0239 33.9779V34.0122C17.0239 34.0122 17.0239 34.0466 17.0583 34.0466L17.1957 34.184C17.1957 34.184 17.1957 34.2184 17.2301 34.2184C17.2301 34.2184 17.2301 34.2528 17.2645 34.2528V34.2871C17.2988 34.3215 17.2988 34.3215 17.3334 34.3215L17.3678 34.3559H17.4022C17.4022 34.3559 17.4022 34.3902 17.4365 34.3902C17.4365 34.3902 17.4709 34.4246 17.5055 34.4246C17.5055 34.459 17.5399 34.4936 17.5745 34.5279C17.6088 34.5623 17.6434 34.5623 17.6434 34.5623L17.6778 34.5967C17.7122 34.631 17.7122 34.631 17.7468 34.6656C17.7811 34.6656 17.7811 34.7 17.7811 34.7C17.7811 34.769 17.8501 34.769 17.8845 34.769H17.9188L17.9532 34.8033C17.9876 34.8033 17.9876 34.8377 18.0222 34.8377C18.0912 34.8721 18.1255 34.9067 18.1255 34.9754C18.1255 35.0098 18.1599 35.0098 18.1599 35.0098C18.1942 35.0098 18.2289 35.0441 18.2632 35.0788C18.2976 35.0788 18.2976 35.1131 18.3322 35.1131C18.3666 35.1475 18.4355 35.1821 18.4699 35.1821H18.5043C18.5043 35.2165 18.5386 35.2165 18.5386 35.2511H18.6076C18.6076 35.2511 18.6076 35.2854 18.642 35.2854C18.6763 35.3198 18.7109 35.3198 18.7797 35.3198C18.7797 35.3542 18.814 35.4231 18.883 35.4231C18.9174 35.4231 18.952 35.4575 18.9863 35.4575C19.0207 35.4575 19.0207 35.4919 19.0553 35.4919C19.0553 35.5262 19.0897 35.5262 19.1243 35.5262H19.193C19.2274 35.5606 19.3307 35.6296 19.3997 35.6296C19.3997 35.6296 19.4341 35.6296 19.4341 35.6639C19.4341 35.6639 19.4684 35.6639 19.4684 35.6983H19.5715C19.6059 35.7327 19.6405 35.7673 19.6749 35.7673C19.8126 35.8016 19.8815 35.8362 19.9505 35.905C19.9505 35.905 19.9849 35.905 19.9849 35.9393L20.1572 35.9737C20.3295 36.0081 20.5018 36.0427 20.7085 36.077C20.7774 36.077 20.8462 36.077 20.8808 36.1114C20.8808 36.1458 20.9151 36.1458 20.9498 36.1458H20.9841C21.0531 36.1114 21.1564 36.1114 21.2598 36.1114H21.3631C21.4664 36.1114 21.5354 36.1114 21.6044 36.077C21.6388 36.077 21.6734 36.0427 21.6734 36.0427H21.7077C21.8111 36.077 21.88 36.077 21.9834 36.0427H22.1208C22.1552 36.0427 22.2242 36.0083 22.2585 36.0083H22.3275C22.3619 36.0083 22.3965 36.0083 22.4308 35.9739C22.4652 35.9739 22.4652 35.9396 22.4998 35.9396H22.5342C22.6032 35.9052 22.6375 35.9052 22.7065 35.9052C22.7409 35.9052 22.7755 35.8708 22.7755 35.8362C22.7755 35.8019 22.8098 35.8019 22.8444 35.7329L22.8788 35.6985C22.9132 35.6642 22.9478 35.6296 22.9478 35.5952V35.4919C22.9821 35.4575 22.9821 35.4575 22.9821 35.4229C22.9821 35.4229 22.9821 35.2852 22.9478 35.1816C22.9478 35.1816 22.9478 35.1472 22.9134 35.1472C22.9134 35.1129 22.879 35.0783 22.8444 35.0783L22.7757 35.0095C22.7757 34.9752 22.7413 34.9752 22.7067 34.9406C22.7067 34.9406 22.6724 34.9406 22.6724 34.9062C22.6724 34.8718 22.6724 34.8372 22.638 34.8372C22.638 34.8029 22.638 34.8029 22.6036 34.7683C22.6036 34.7339 22.6036 34.6993 22.5693 34.6993L22.5349 34.6649C22.5005 34.6649 22.4659 34.6306 22.4659 34.596C22.4659 34.596 22.4659 34.5616 22.4316 34.5616C22.4316 34.5272 22.4316 34.5272 22.3972 34.4926L22.3628 34.4582C22.3628 34.4239 22.2939 34.3549 22.2251 34.2859C22.298 34.2552 22.2633 34.2552 22.2633 34.2552L22.091 34.0829C22.091 34.0485 22.091 34.0139 22.0567 34.0139C22.0567 34.0139 22.0223 33.9795 21.9877 33.9795C21.9877 33.9452 21.9877 33.9452 21.9533 33.9106C21.9533 33.9106 21.9533 33.8762 21.919 33.8762C21.919 33.8762 21.919 33.8418 21.8846 33.8418C21.8502 33.8075 21.8502 33.7729 21.8502 33.7385L21.8159 33.6695C21.8159 33.6352 21.8159 33.6352 21.7815 33.6005C21.7815 33.6005 21.7815 33.5662 21.7471 33.5662C21.7471 33.5318 21.7128 33.4972 21.7128 33.4285C21.7128 33.3941 21.7128 33.3595 21.6784 33.3251C21.6784 33.3251 21.6784 33.2908 21.644 33.2908V33.1531C21.644 33.1187 21.644 33.1187 21.6097 33.1187V33.0154C21.6097 32.981 21.5753 32.981 21.5753 32.9464V32.7741C21.5753 32.7741 21.5753 32.7397 21.5409 32.7397V32.6364C21.5409 32.6364 21.5409 32.602 21.5753 32.602V32.4641C21.5753 32.4297 21.5753 32.3607 21.5409 32.3264C21.5409 32.292 21.5066 32.2574 21.5066 32.2574V32.1884C21.5066 32.1541 21.5409 32.1195 21.5409 32.0851C21.5409 32.0507 21.5409 32.0161 21.5066 31.9818C21.5066 31.9818 21.5066 31.9474 21.5409 31.9474V31.8784L21.5753 31.844V31.672C21.5753 31.6376 21.5753 31.6376 21.6097 31.603V31.293C21.644 31.2586 21.644 31.224 21.644 31.224V31.052C21.6784 31.0176 21.6784 30.9486 21.713 30.8796C21.713 30.8453 21.7474 30.8107 21.7474 30.7763L21.7817 30.7419C21.7817 30.7419 21.7817 30.7076 21.8161 30.7076C21.8161 30.7076 21.8505 30.6732 21.8851 30.6386H21.9884C22.4018 30.6386 22.8153 30.673 23.2977 30.673H23.5733C23.6766 30.673 23.849 30.7073 23.9179 30.673C23.9523 30.7073 24.0556 30.7419 24.1246 30.7073H24.1933C24.2277 30.7073 24.2623 30.7073 24.2967 30.7417C24.331 30.7417 24.4 30.7761 24.469 30.7761C24.538 30.7761 24.6413 30.7761 24.7103 30.8104C24.9169 30.8448 25.1582 30.8448 25.3303 30.8104H25.4682C25.4682 30.8104 25.5026 30.8104 25.5026 30.7761C25.537 30.7761 25.537 30.7417 25.5716 30.7417H25.6747C25.709 30.7417 25.778 30.7073 25.8124 30.7073C25.8124 30.7073 25.8467 30.7073 25.8467 30.673C25.8811 30.673 25.8811 30.6386 25.9157 30.6386H25.9847C26.019 30.6386 26.019 30.6042 26.019 30.5696H26.088C26.1224 30.5696 26.1224 30.5353 26.1224 30.5007C26.1224 30.5007 26.1567 30.4663 26.1567 30.4317C26.1567 30.3973 26.1567 30.3973 26.1911 30.3973C26.1911 30.3973 26.1911 30.363 26.2255 30.363C26.2255 30.3286 26.2598 30.3286 26.2598 30.294V30.2596C26.2942 30.2596 26.2942 30.2253 26.2942 30.1906V30.1563L26.3286 30.1219V30.0186C26.3629 30.0186 26.3629 29.9842 26.3629 29.9496V29.7083C26.3973 29.605 26.3973 29.467 26.3973 29.3293V29.1229C26.3973 29.0885 26.4317 29.0196 26.4317 28.9506V28.1929C26.4317 28.1585 26.466 28.0895 26.466 28.0206V27.7105C26.466 27.6762 26.466 27.6416 26.5004 27.6072C26.5004 27.5728 26.5348 27.5382 26.5348 27.5039V27.2972C26.5348 27.1595 26.5691 27.0215 26.5691 26.9182C26.5691 26.8149 26.6035 26.7115 26.6035 26.6082C26.6035 26.6082 26.6379 26.5738 26.6379 26.5392V26.4359C26.6722 26.4015 26.6722 26.3669 26.6722 26.3326C26.6722 26.2982 26.6722 26.2636 26.6379 26.2292V26.1948C26.6379 26.1605 26.6379 26.1605 26.6722 26.1259V25.7813C26.6722 25.7813 26.6722 25.7469 26.7066 25.7469V25.2646C26.7066 25.2646 26.7066 25.2302 26.741 25.1956V25.1269C26.741 25.0925 26.7753 25.0579 26.741 25.0235C26.741 24.9892 26.741 24.9546 26.7066 24.9546C26.741 24.9202 26.741 24.8856 26.741 24.8856C26.741 24.8856 26.741 24.8512 26.7066 24.8512V24.6102L26.6389 24.4708ZM25.2263 25.2631V25.4354C25.1919 25.4698 25.1919 25.5388 25.1919 25.5732V25.6075C25.1575 25.6419 25.1575 25.6765 25.1919 25.7452V25.8142C25.1919 25.8486 25.1575 25.8832 25.1919 25.9175V26.1242C25.1919 26.1932 25.1575 26.2619 25.1919 26.2965V26.3652C25.1229 26.3314 25.1229 26.3657 25.1229 26.4001V26.8478L25.0886 26.8822V27.1576C25.0886 27.1576 25.0542 27.1919 25.0542 27.2266V27.2955C25.0198 27.5022 24.9852 27.7778 24.9852 28.0535C24.9852 28.2258 24.9509 28.3635 24.9509 28.5014V29.1904C24.9509 29.2938 24.9509 29.3971 24.9165 29.5004C24.8821 29.5004 24.8132 29.5004 24.7788 29.4661C24.7098 29.4661 24.6065 29.4317 24.5375 29.4317H23.8829C23.7452 29.4661 23.5383 29.4317 23.3662 29.4317H23.2285C23.2285 29.4317 23.1941 29.3973 23.1595 29.3973C23.1252 29.3973 23.1252 29.3973 23.0905 29.4317C23.0905 29.4317 23.0562 29.3973 23.0216 29.3973H21.8159C21.6436 29.3973 21.5059 29.3973 21.4369 29.4317C21.4025 29.4317 21.3679 29.4317 21.3336 29.4661H21.1615C21.1271 29.4661 21.1271 29.4661 21.0925 29.5004C21.0582 29.5348 21.0236 29.5694 20.9548 29.5694C20.9205 29.5694 20.8859 29.6038 20.8515 29.6384L20.7482 29.7417C20.7138 29.7417 20.7138 29.7417 20.6792 29.7761C20.6448 29.7761 20.6448 29.8104 20.6448 29.8104V29.8448C20.6448 29.8448 20.6105 29.8448 20.5758 29.8792C20.5415 29.8792 20.5415 29.9135 20.5415 29.9135C20.5415 29.9135 20.5071 29.9135 20.5071 29.9479C20.5071 29.9479 20.4727 29.9823 20.4727 30.0169V30.0512C20.4727 30.0512 20.4384 30.0856 20.4384 30.1202C20.4384 30.1202 20.404 30.1202 20.404 30.1546C20.2997 30.0866 20.2997 30.1209 20.2997 30.1209V30.1553C20.2654 30.2243 20.2307 30.2586 20.2307 30.3276C20.2307 30.362 20.2307 30.362 20.1964 30.3966V30.431C20.1964 30.4653 20.162 30.4999 20.162 30.5343V30.6376C20.162 30.6376 20.162 30.672 20.1277 30.672L20.0933 30.7064C20.0933 30.7407 20.0589 30.8097 20.0589 30.8441V31.0164L20.0246 31.0507V31.2574L19.9902 31.2918C19.9902 31.3261 19.9902 31.3607 20.0246 31.3951C20.0246 31.4295 19.9902 31.4985 19.9902 31.5328C19.9902 31.5672 19.9558 31.6362 19.9558 31.6705V31.9116C19.9558 31.9116 19.9215 31.9459 19.9215 31.9805V32.4626C19.9215 32.6003 19.9215 32.7039 19.9558 32.7726V32.8414C19.9558 32.8414 19.9558 32.8757 19.9902 32.9103C19.9902 32.9447 20.0246 32.9793 20.0246 33.048V33.0824C20.0246 33.1168 20.0246 33.1514 20.0589 33.1857C20.0933 33.2891 20.0933 33.3924 20.1623 33.4614C20.1623 33.5304 20.1623 33.5991 20.1966 33.6337C20.1966 33.6681 20.1966 33.7027 20.231 33.7027C20.231 33.737 20.2654 33.7716 20.2654 33.806C20.2997 33.875 20.3343 33.9437 20.3343 33.9783V34.116C20.3687 34.1504 20.3687 34.2194 20.4033 34.2194V34.2883C20.4033 34.3227 20.4377 34.3227 20.4723 34.3573C20.4723 34.3917 20.5066 34.4263 20.5066 34.4263C20.5066 34.4606 20.541 34.4606 20.541 34.4952C20.541 34.5296 20.541 34.5296 20.5754 34.5642C20.5754 34.5986 20.6097 34.5986 20.6443 34.6332C20.6787 34.6676 20.7133 34.7022 20.7477 34.7022V34.7365H20.5754C20.541 34.7365 20.541 34.7365 20.5064 34.7022C20.5064 34.7022 20.472 34.6678 20.4374 34.6678H20.4031L20.3687 34.6334C20.3343 34.6334 20.3343 34.6334 20.2997 34.5991C20.2654 34.5991 20.2654 34.5647 20.2654 34.5647C20.231 34.5647 20.231 34.5303 20.1964 34.5303C20.162 34.5303 20.1274 34.496 20.093 34.496C20.0587 34.496 20.0587 34.496 20.0241 34.4616L19.9897 34.4272C19.9553 34.4272 19.9553 34.4272 19.9207 34.3929H19.8864C19.783 34.3585 19.7141 34.2895 19.6451 34.2552C19.6107 34.2208 19.5761 34.2208 19.5074 34.1862C19.4384 34.1518 19.404 34.1172 19.3697 34.0829C19.3697 34.0485 19.3353 34.0485 19.3007 34.0485H19.2663C19.2663 34.0485 19.232 34.0485 19.232 34.0141C19.1976 34.0141 19.1976 34.0141 19.163 33.9798L19.1286 33.9454C19.0943 33.911 19.0943 33.911 19.0597 33.8764C19.0253 33.8764 19.0253 33.8421 18.9907 33.8421C18.9563 33.8421 18.9563 33.8077 18.9217 33.8077L18.8184 33.7044C18.784 33.67 18.7494 33.67 18.7151 33.6354C18.6807 33.601 18.6117 33.5664 18.6117 33.532L18.543 33.4633C18.474 33.3943 18.4396 33.36 18.4396 33.291C18.4053 33.2566 18.3707 33.222 18.3363 33.1877C18.3019 33.1877 18.3019 33.1533 18.3019 33.1533V33.1189C18.3019 33.0846 18.2676 33.05 18.2676 33.05V33.0156C18.2676 32.9812 18.2332 32.9466 18.2332 32.9466V32.8779C18.2332 32.8435 18.1988 32.8435 18.1988 32.8435C18.1988 32.8435 18.1988 32.8092 18.1645 32.7746C18.1645 32.7402 18.1645 32.7402 18.1301 32.7056C18.1301 32.6712 18.0957 32.6712 18.0957 32.6712V32.6369C18.0957 32.6025 18.0957 32.6025 18.0614 32.5679V32.4992C18.0614 32.4648 18.0614 32.4648 18.027 32.4648V32.4304L17.958 32.2237C17.958 32.1894 17.958 32.1894 17.9237 32.1894V32.1207C17.9237 32.1207 17.9237 32.0863 17.8893 32.0517C17.8893 32.0173 17.8549 31.9827 17.8549 31.9827C17.8549 31.9827 17.8549 31.9483 17.8206 31.9137V31.8448C17.8206 31.7758 17.7862 31.7414 17.7862 31.7071V31.535C17.7862 31.5006 17.7519 31.466 17.7519 31.4317V31.3629C17.7175 31.2596 17.7175 31.2252 17.6829 31.1906V31.1219C17.6829 31.0875 17.6829 31.0529 17.6485 31.0185C17.6485 30.9842 17.6485 30.9496 17.6142 30.9496C17.6142 30.8462 17.5798 30.7773 17.5798 30.6739C17.5454 30.5706 17.5454 30.4326 17.5108 30.3293C17.4764 30.157 17.4418 30.0537 17.4075 29.916V29.8816C17.4075 29.8472 17.3731 29.7783 17.3731 29.7439C17.3731 29.7095 17.3731 29.6749 17.3387 29.6749C17.3044 29.6059 17.3044 29.5026 17.3044 29.4336C17.3044 29.3647 17.27 29.2959 17.27 29.227C17.27 29.1926 17.2356 29.158 17.2356 29.158C17.2356 29.1236 17.27 29.1236 17.2356 29.0546C17.2356 29.0203 17.2013 28.9857 17.2013 28.9513V28.538C17.2013 28.538 17.2013 28.5036 17.1669 28.5036C17.1669 28.4346 17.1326 28.3659 17.1326 28.2623C17.1326 28.1933 17.1326 28.1246 17.0982 28.0556C17.0982 28.0213 17.0638 27.9867 17.0638 27.9867V27.8833C17.0638 27.8144 17.0638 27.78 17.0295 27.7456C17.0295 27.7113 17.0295 27.6767 16.9951 27.6079C16.9951 27.5736 17.0295 27.5736 17.0295 27.5389V27.3666C17.0295 27.3666 17.0638 27.3323 17.0295 27.2977C17.0295 27.2977 17.0295 27.2633 16.9951 27.2633V25.9199C16.9951 25.7476 17.0295 25.5409 16.9951 25.4376V25.3345C16.9951 25.3001 17.0295 25.3001 16.9951 25.2312C16.9951 25.1968 16.9607 25.1622 16.9607 25.0935V25.0591C16.9607 25.0591 16.9607 25.0247 16.9951 25.0247V23.8534L17.0295 23.5088C17.0295 23.3365 17.0638 23.1988 17.0638 23.0265V22.6131C17.0638 22.5788 17.0982 22.5788 17.0982 22.5098V22.4064L17.1326 22.3031V22.1998C17.1326 22.1654 17.1326 22.1654 17.1669 22.1308C17.1669 22.0964 17.2013 22.0618 17.2013 22.0275V21.7174C17.2356 21.6831 17.2356 21.6485 17.2356 21.6485L17.27 21.6141C17.3044 21.5451 17.3734 21.5108 17.3734 21.4764C17.4077 21.4764 17.4077 21.4764 17.4423 21.442C17.4767 21.4077 17.4767 21.4077 17.5113 21.3731C17.5457 21.3387 17.649 21.3387 17.718 21.3387H18.0626C18.1316 21.3387 18.1659 21.3387 18.2003 21.3043H18.4413C18.6136 21.27 18.786 21.27 18.958 21.27H19.5093C19.6127 21.27 19.7506 21.27 19.8539 21.2356C20.0952 21.2012 20.2673 21.2012 20.5429 21.2356C20.6806 21.2356 20.8186 21.27 20.9563 21.27C20.9906 21.27 21.0252 21.27 21.0252 21.2356C21.0942 21.2356 21.1629 21.27 21.2665 21.27H21.5422L21.5765 21.3043H21.7142C21.7832 21.3387 21.8865 21.3043 21.9555 21.3043H22.0932C22.1276 21.3387 22.1622 21.3387 22.1622 21.3043H22.5755C22.6445 21.3043 22.7132 21.3387 22.7822 21.3043H22.8166C22.8509 21.3043 22.9199 21.3043 22.9543 21.27C22.9887 21.27 22.9887 21.2356 22.9887 21.2356H23.1607C23.1951 21.27 23.2297 21.27 23.2297 21.27H23.2987C23.333 21.27 23.333 21.27 23.3676 21.2356C23.4366 21.2356 23.5053 21.2356 23.5399 21.27C23.5743 21.27 23.6433 21.27 23.6777 21.3043C23.781 21.3043 23.8154 21.3387 23.85 21.3387H23.9877L24.022 21.3731C24.3666 21.442 24.642 21.5108 24.8144 21.6144C24.8487 21.6833 24.8487 21.7867 24.8833 21.8556C24.8833 21.9246 24.8833 21.9933 24.9177 22.0279C24.9177 22.0969 24.9521 22.1313 24.9867 22.1656C25.021 22.2 25.021 22.2346 25.021 22.3034C25.021 22.3377 25.021 22.4067 25.0554 22.4411C25.0554 22.51 25.0554 22.5788 25.0898 22.6134C25.0898 22.6823 25.1241 22.7167 25.1587 22.7167C25.2621 23.1647 25.2964 23.578 25.3311 23.957V24.0603C25.2967 24.0947 25.3311 24.1293 25.3311 24.1637V24.2326C25.3311 24.2326 25.3311 24.267 25.3654 24.3016V24.8524C25.3654 24.8868 25.3654 24.9214 25.3998 24.9557V25.1624L25.3654 25.1968C25.1919 25.2288 25.1919 25.2288 25.2263 25.2631Z" fill="white"></path><path d="M40.9712 25.1945C40.9712 25.1945 40.9712 25.1602 41.0055 25.1255V25.0568C41.0055 25.0225 41.0399 24.9878 41.0055 24.9535C41.0055 24.9191 41.0055 24.8845 40.9712 24.8845C41.0055 24.8501 41.0055 24.8155 41.0055 24.8155C41.0055 24.8155 41.0055 24.7812 40.9712 24.7812V24.5401L41.0055 24.5058V24.4368C41.0055 24.4024 41.0055 24.3335 40.9712 24.2645V24.0924C40.9712 24.0581 40.9712 24.0234 40.9368 23.9891L40.9712 23.9547C40.9712 23.9204 41.0055 23.9204 40.9712 23.8857C40.9368 23.8168 40.9368 23.748 40.9368 23.6445C40.9368 23.5411 40.9368 23.4032 40.8678 23.2998C40.9022 23.2309 40.8678 23.1621 40.8678 23.1275V23.0242C40.8678 22.9898 40.8678 22.9209 40.8335 22.8865C40.8335 22.8865 40.8335 22.8521 40.7991 22.8521C40.7991 22.7488 40.7991 22.6798 40.7647 22.6455C40.7647 22.6455 40.7647 22.6111 40.7304 22.6111C40.7304 22.5767 40.696 22.5421 40.6614 22.5078V22.4734C40.6958 22.4734 40.6958 22.439 40.6958 22.4044C40.6958 22.3701 40.6958 22.3011 40.6614 22.2667V22.1634C40.627 22.06 40.627 21.9221 40.5581 21.8534L40.5924 21.819C40.5924 21.7846 40.5924 21.75 40.5581 21.75V21.6811C40.5581 21.6121 40.5581 21.5434 40.5237 21.4398C40.5237 21.4398 40.5237 21.4054 40.4893 21.4054C40.4893 21.3711 40.455 21.3711 40.455 21.3364C40.455 21.3364 40.455 21.3021 40.4206 21.3021C40.4206 21.2677 40.3862 21.2331 40.3862 21.1987C40.3862 21.1298 40.3519 21.0954 40.3519 21.061C40.3519 21.0267 40.3175 21.0267 40.3175 21.0267V20.9923L40.2831 20.9579C40.2488 20.9236 40.2142 20.9236 40.2142 20.889C40.2142 20.8546 40.1798 20.82 40.1452 20.82C40.1108 20.82 40.1108 20.82 40.0762 20.7856C40.0762 20.7856 40.0419 20.7856 40.0419 20.7513L40.0075 20.7169H39.9388L39.9044 20.6825H39.87C39.8357 20.6482 39.7667 20.6136 39.6977 20.6136L39.593 20.4744H39.455C39.4206 20.4744 39.386 20.4401 39.3517 20.4401C39.3173 20.4057 39.2483 20.4057 39.214 20.3711C39.1796 20.3711 39.1106 20.3711 39.0763 20.3367H39.0419C39.0075 20.3024 38.9729 20.3024 38.9386 20.3024C38.9386 20.3024 38.9042 20.3024 38.9042 20.3367C38.8698 20.3024 38.8352 20.3024 38.7665 20.3024C38.6288 20.3024 38.4565 20.268 38.2498 20.2334C38.2154 20.2334 38.2154 20.199 38.1465 20.199H37.63V20.1647C37.63 20.1303 37.5957 20.1303 37.561 20.1303H37.5267C37.4577 20.1303 37.389 20.0959 37.32 20.0959C37.32 20.0616 37.2856 20.0616 37.2167 20.0616H37.1823L37.1133 19.9926H36.39C36.321 19.9926 36.2866 19.9926 36.2523 19.9582C36.1833 19.9582 36.1489 19.9239 36.08 19.9239H35.6664C35.5974 19.8895 35.3563 19.8895 35.253 19.8895C35.253 19.8895 35.2186 19.8551 35.184 19.8551H34.8055C34.5989 19.8551 34.3576 19.8551 34.0819 19.8895C34.0476 19.8895 34.0476 19.8895 34.0129 19.9239C33.9786 19.9239 33.944 19.8895 33.8752 19.8895H33.7719C33.7375 19.8895 33.7375 19.8895 33.7029 19.9239H33.2206C33.0139 19.9239 32.8073 19.9582 32.6006 19.9582C32.4973 19.9582 32.3939 19.9926 32.2906 19.9926H32.1872C32.1529 19.9926 32.1183 19.9926 32.0839 20.027C32.0495 20.027 32.0149 20.027 31.9806 20.0613H31.7049C31.6706 20.0613 31.6706 20.0613 31.6706 20.0957H31.5672C31.5329 20.0957 31.4639 20.1301 31.4295 20.1301H31.3262C31.3262 20.1301 31.2918 20.1301 31.2918 20.1644C31.2574 20.1644 31.2574 20.1644 31.2228 20.1988H31.1885C31.1541 20.1988 31.1195 20.2332 31.0851 20.2332C31.0162 20.2332 30.9818 20.2332 30.9128 20.2675C30.8785 20.2675 30.8785 20.3019 30.8439 20.3019H30.8095C30.8095 20.3019 30.7751 20.3019 30.7405 20.3362C30.6372 20.4052 30.5338 20.474 30.4649 20.5775C30.4305 20.6119 30.4305 20.6119 30.4305 20.6465C30.3961 20.6465 30.3615 20.6465 30.3615 20.6809L30.1892 20.8875C30.1549 20.9219 30.1203 20.9565 30.0859 20.9909L30.0515 21.0252C30.0172 21.0252 30.0172 21.0596 30.0172 21.0596V21.1286C30.0172 21.1286 29.9828 21.1629 29.9828 21.1975V21.2665C29.9484 21.2665 29.9484 21.3009 29.9138 21.3009V21.4042C29.9138 21.4042 29.8795 21.4042 29.8795 21.4386C29.8451 21.473 29.8451 21.5076 29.8451 21.5419C29.8107 21.6109 29.8107 21.7142 29.7761 21.8519C29.7761 21.9209 29.7761 21.9896 29.7417 22.0586L29.7074 22.1619C29.673 22.2653 29.673 22.3343 29.673 22.4376C29.673 22.4376 29.6387 22.472 29.6387 22.5066V22.5409C29.6387 22.6099 29.673 22.6786 29.673 22.7132C29.673 22.7132 29.6387 22.7476 29.6387 22.8166C29.6387 22.8509 29.6387 22.8509 29.673 22.8509C29.673 22.8509 29.673 22.8853 29.6387 22.9199V23.1956C29.6387 23.2299 29.6387 23.2299 29.673 23.2645V23.2989C29.673 23.3333 29.6387 23.3333 29.6387 23.4022L29.6362 23.9196V24.0573C29.6362 24.195 29.6019 24.333 29.6362 24.5053V24.6086C29.6362 24.6086 29.6362 24.643 29.6706 24.643V24.7117C29.6362 24.7117 29.6016 24.7461 29.6362 24.8151C29.6362 24.8151 29.6362 24.8494 29.6706 24.8494V26.6403C29.6706 26.6746 29.6362 26.7092 29.6706 26.7092C29.6706 26.7092 29.6706 26.7436 29.705 26.7436V26.778C29.6706 26.8123 29.705 26.8469 29.705 26.8813V26.9157C29.705 27.088 29.705 27.2947 29.7393 27.5013C29.7393 27.5013 29.7393 27.5357 29.705 27.5357C29.705 27.5701 29.705 27.6047 29.7393 27.639V27.8111C29.7393 27.8801 29.7393 27.9488 29.7737 28.0178C29.7737 28.0521 29.8081 28.0867 29.8081 28.0867V28.1555C29.8081 28.1898 29.8081 28.2588 29.8424 28.3621C29.8424 28.3965 29.8424 28.4311 29.8768 28.4655C29.8768 28.4998 29.9112 28.5688 29.9112 28.6378C29.9112 28.7411 29.9455 28.8101 29.9455 28.9134V29.1201C29.9455 29.2234 29.9799 29.2924 29.9455 29.3958C29.9455 29.4301 29.9455 29.4647 29.9799 29.4647C30.0143 29.4647 30.0143 29.5337 30.0143 29.5681V29.7401H30.0486C30.0486 29.7401 30.0486 29.7745 30.083 29.8091V29.8781C30.083 29.9124 30.083 29.947 30.1174 29.9814C30.1174 29.9814 30.1174 30.0158 30.1517 30.0504V30.0847C30.1517 30.0847 30.1517 30.1191 30.1861 30.1191C30.1861 30.2224 30.2205 30.3258 30.2205 30.4291C30.2205 30.4635 30.2205 30.4981 30.2548 30.5325C30.2548 30.5325 30.2548 30.5668 30.2892 30.6358C30.2892 30.6702 30.3236 30.7391 30.3236 30.7735V31.0489C30.3236 31.1179 30.3236 31.2212 30.3579 31.2902C30.3579 31.3245 30.3579 31.3592 30.3923 31.3935V31.5312L30.4267 31.6346C30.4267 31.6689 30.461 31.7379 30.461 31.7723V31.9102C30.461 31.9446 30.4954 31.9446 30.53 31.9792V32.0135C30.53 32.0479 30.53 32.0825 30.5644 32.1169C30.5644 32.1169 30.5644 32.1512 30.5987 32.1512C30.5987 32.1856 30.5987 32.2546 30.6331 32.2889C30.6331 32.3233 30.6675 32.3923 30.6675 32.3923V32.4613C30.6675 32.4956 30.6675 32.4956 30.7018 32.5302C30.7018 32.5302 30.7018 32.5646 30.7362 32.5646L30.7705 32.6336V32.6679C30.7705 32.7023 30.7705 32.7369 30.8049 32.7369C30.8049 32.7713 30.8393 32.7713 30.8393 32.7713V32.8402C30.8393 32.8746 30.8736 32.8746 30.9083 32.9092V32.9782C30.9083 33.0471 30.9426 33.1505 31.0116 33.2195C31.046 33.2538 31.046 33.2884 31.0806 33.3572C31.0806 33.3915 31.1149 33.4261 31.1149 33.4605C31.1149 33.4949 31.1149 33.4949 31.1493 33.5295C31.1493 33.5638 31.1837 33.5638 31.2183 33.5638C31.2183 33.5982 31.2183 33.6328 31.2526 33.6328C31.2526 33.6672 31.287 33.7018 31.3216 33.7018C31.3216 33.7361 31.356 33.7707 31.3906 33.7707C31.3906 33.8051 31.3906 33.9084 31.4595 33.9431V33.9774L31.6314 34.1492C31.6314 34.1492 31.6314 34.1836 31.6657 34.1836C31.6657 34.1836 31.6657 34.218 31.7001 34.218C31.7345 34.2523 31.7345 34.2523 31.7691 34.2523L31.8034 34.2867H31.8378C31.8378 34.2867 31.8378 34.3211 31.8722 34.3211C31.8722 34.3211 31.9065 34.3554 31.9411 34.3554C31.9411 34.3898 31.9755 34.4244 32.0101 34.4588C32.0445 34.4931 32.0791 34.4931 32.0791 34.4931L32.1135 34.5275C32.1135 34.5619 32.1478 34.5619 32.1824 34.5965C32.2168 34.5965 32.2168 34.6308 32.2168 34.6308C32.2168 34.6998 32.2858 34.6998 32.3201 34.6998H32.3545L32.3889 34.7342C32.4232 34.7342 32.4232 34.7685 32.4578 34.7685C32.5268 34.8029 32.5612 34.8375 32.5612 34.9062C32.5612 34.9406 32.5955 34.9406 32.5955 34.9406C32.6299 34.9406 32.6645 34.975 32.6989 35.0096C32.7332 35.0096 32.7332 35.0439 32.7678 35.0439C32.8022 35.0783 32.8712 35.1129 32.9055 35.1129H32.9399C32.9399 35.1473 32.9743 35.1473 32.9743 35.1819H33.0433C33.0433 35.1819 33.0433 35.2163 33.0776 35.2163C33.0127 35.2888 33.0471 35.2888 33.1161 35.2888C33.1161 35.3232 33.1504 35.3922 33.2194 35.3922C33.2538 35.3922 33.2884 35.4265 33.3227 35.4265C33.3571 35.4265 33.3571 35.4609 33.3917 35.4609C33.3917 35.4953 33.4261 35.4953 33.4607 35.4953H33.5294C33.5638 35.5296 33.6671 35.5986 33.7361 35.5986C33.7361 35.5986 33.7705 35.5986 33.7705 35.633C33.7705 35.633 33.8048 35.633 33.8048 35.6673H33.9079C33.9423 35.7017 33.9769 35.7363 34.0113 35.7363C34.149 35.7707 34.2179 35.8053 34.2869 35.874C34.2869 35.874 34.3213 35.874 34.3213 35.9084L34.4936 35.9427C34.6659 35.9771 34.8382 36.0117 35.0449 36.0461C35.1138 36.0461 35.1826 36.0461 35.2172 36.0804C35.2172 36.1148 35.2515 36.1148 35.2861 36.1148H35.3205C35.3895 36.0804 35.4582 36.0804 35.4928 36.0804H35.6995C35.8028 36.0804 35.8718 36.0804 35.9408 36.0461C35.9751 36.0461 36.0098 36.0117 36.0098 36.0117H36.0441C36.1475 36.0461 36.2164 36.0461 36.3198 36.0117H36.4572C36.4916 36.0117 36.5606 35.9773 36.5949 35.9773H36.6639C36.6983 35.9773 36.7329 35.9773 36.7672 35.943C36.8016 35.943 36.8016 35.9086 36.8362 35.9086H36.8706C36.9396 35.8742 36.9739 35.8742 37.0429 35.8742C37.0773 35.8742 37.1119 35.8399 37.1119 35.8053C37.1119 35.7709 37.1462 35.7363 37.1808 35.7019L37.2152 35.6676C37.2496 35.6332 37.2842 35.5986 37.2842 35.5642V35.4609C37.3185 35.4265 37.3185 35.4265 37.3185 35.3919C37.3185 35.3919 37.3185 35.2542 37.2842 35.1507C37.2842 35.1507 37.2842 35.1163 37.2498 35.1163C37.2498 35.0819 37.2154 35.0473 37.1808 35.0473L37.1121 34.9786C37.1121 34.9442 37.0777 34.9442 37.0431 34.9096C37.0431 34.9096 37.0088 34.9096 37.0088 34.8752C37.0088 34.8409 37.0088 34.8063 36.9744 34.8063C36.9744 34.7719 36.9744 34.7719 36.94 34.7373C36.94 34.7029 36.94 34.6683 36.9057 34.6683L36.8713 34.634C36.8713 34.5998 36.8369 34.5998 36.8369 34.5655C36.8369 34.5655 36.8369 34.5311 36.8026 34.5311C36.8026 34.4967 36.8026 34.4967 36.7682 34.4621L36.7338 34.4278C36.7338 34.3934 36.6649 34.3244 36.5961 34.2555C36.5961 34.2555 36.5957 34.2552 36.5613 34.2552L36.389 34.0829C36.389 34.0486 36.389 34.0139 36.3546 34.0139C36.3546 34.0139 36.3203 34.0139 36.3203 33.9796C36.3203 33.9452 36.3203 33.9452 36.2859 33.9106C36.2859 33.9106 36.2859 33.8762 36.2515 33.8762C36.2515 33.8762 36.2515 33.8419 36.2172 33.8419C36.1828 33.8075 36.1828 33.7729 36.1828 33.7385L36.1477 33.6008C36.1477 33.5665 36.1477 33.5665 36.1133 33.5319C36.1133 33.5319 36.1133 33.4975 36.079 33.4629C36.079 33.4285 36.0446 33.3939 36.0446 33.3252C36.0446 33.2908 36.0446 33.2562 36.0102 33.2219C36.0102 33.2219 36.0102 33.1875 35.9759 33.1875V33.0498C35.9759 33.0498 35.9759 33.0154 35.9415 33.0154V32.9121C35.9415 32.8777 35.9071 32.8777 35.9071 32.8777V32.7054C35.9071 32.7054 35.9071 32.6711 35.8728 32.6711V32.5677C35.8728 32.5677 35.8728 32.5333 35.9071 32.5333V32.3954C35.9071 32.361 35.9071 32.2921 35.8728 32.2577C35.8728 32.2233 35.8384 32.1887 35.8384 32.1887V32.1198C35.8384 32.0854 35.8728 32.0508 35.8728 32.0164C35.8728 31.9821 35.8728 31.9475 35.8384 31.9131C35.8384 31.9131 35.8384 31.8787 35.8728 31.8787V31.8097L35.9071 31.7754V31.6033C35.9071 31.569 35.9071 31.569 35.9415 31.5343V31.2243C35.9759 31.19 35.9759 31.19 35.9759 31.1554V30.9833C36.0102 30.9489 36.0102 30.88 36.0448 30.811C36.0448 30.7766 36.0792 30.7077 36.0792 30.7077V30.6733C36.0792 30.6733 36.0792 30.6389 36.1136 30.6389L36.1826 30.5699H36.2859C36.6992 30.5699 37.1128 30.6043 37.5951 30.6043H37.8708C37.9741 30.6043 38.1464 30.6387 38.2154 30.6043C38.2498 30.6387 38.3531 30.6733 38.4221 30.6387H38.4908C38.5252 30.6387 38.5598 30.6387 38.5941 30.673C38.6285 30.673 38.6975 30.7074 38.7665 30.7074C38.8354 30.7074 38.9388 30.7074 39.0077 30.7418C39.2144 30.7761 39.4557 30.7761 39.6277 30.7418H39.7657C39.7657 30.7418 39.8001 30.7418 39.8001 30.7074C39.8344 30.7074 39.8344 30.673 39.869 30.673H39.9721C40.0065 30.673 40.0755 30.6387 40.1098 30.6387C40.1098 30.6387 40.1442 30.6387 40.1442 30.6043C40.1786 30.6043 40.1786 30.5699 40.2132 30.5699H40.2821C40.3165 30.5699 40.3165 30.5356 40.3165 30.501H40.3855C40.4198 30.501 40.4198 30.4666 40.4198 30.432C40.4198 30.432 40.4542 30.3976 40.4542 30.363C40.4542 30.3287 40.4542 30.3287 40.4886 30.3287C40.4886 30.3287 40.4886 30.2943 40.5229 30.2943C40.5229 30.2599 40.5229 30.2599 40.5573 30.2253V30.191C40.5917 30.191 40.5917 30.1566 40.5917 30.122V30.0876C40.5917 30.0876 40.5917 30.0533 40.626 30.0533V29.9499C40.6604 29.9499 40.6604 29.9156 40.6604 29.881V29.6397C40.6948 29.5363 40.6948 29.3984 40.6948 29.2951V29.0884C40.6948 29.054 40.7291 28.9851 40.7291 28.9161V28.1584C40.7291 28.124 40.7635 28.055 40.7635 27.986V27.676C40.7635 27.6417 40.7635 27.6071 40.7979 27.5727C40.7979 27.5383 40.8322 27.5037 40.8322 27.4694V27.2627C40.8322 27.125 40.8666 26.987 40.8666 26.8493C40.8666 26.746 40.901 26.677 40.901 26.5737C40.901 26.5737 40.9353 26.5393 40.9353 26.5047V26.4358C40.9697 26.4014 40.9697 26.3668 40.9697 26.3324C40.9697 26.2981 40.9697 26.2634 40.9353 26.2291V26.1947C40.9353 26.1604 40.9353 26.1604 40.9697 26.1257V25.7811C40.9697 25.7811 40.9697 25.7468 41.0041 25.7468V25.5401C40.9711 25.3668 40.9712 25.2979 40.9712 25.1945ZM39.5242 25.2633V25.4356C39.4898 25.4699 39.4898 25.5389 39.4898 25.5733V25.6076C39.4555 25.642 39.4555 25.6766 39.4898 25.7453V25.7797C39.4898 25.8141 39.4555 25.883 39.4898 25.9174V26.1241C39.4898 26.193 39.4555 26.2618 39.4898 26.2964V26.3651C39.4555 26.3995 39.4555 26.4341 39.4555 26.4684V26.8818L39.4211 26.9162V27.2262L39.3867 27.2605V27.3295C39.3524 27.5362 39.3178 27.8118 39.3178 28.0874C39.3178 28.2598 39.3178 28.3975 39.2834 28.5354V29.2244C39.2834 29.3277 39.2834 29.4311 39.249 29.5344C39.2147 29.5344 39.1457 29.5344 39.1113 29.5C39.0423 29.5 38.939 29.4657 38.87 29.4657H38.2154C38.0777 29.5 37.8708 29.4657 37.6987 29.4657H37.561C37.561 29.4657 37.5267 29.4313 37.492 29.4313C37.4577 29.4313 37.4577 29.4313 37.4231 29.4657C37.4231 29.4657 37.3887 29.4313 37.3541 29.4313H36.1484C35.9761 29.4313 35.8384 29.4313 35.7694 29.4657C35.7351 29.4657 35.7005 29.4657 35.6661 29.5H35.4597C35.4253 29.5 35.4253 29.5 35.3907 29.5344C35.3563 29.5688 35.3217 29.6034 35.253 29.6034C35.2186 29.6034 35.184 29.6377 35.1497 29.6723C35.1153 29.7067 35.1153 29.7067 35.0807 29.7413L35.0463 29.7757C35.0119 29.7757 35.0119 29.7757 34.9773 29.81C34.943 29.81 34.943 29.8444 34.9084 29.879V29.9134C34.9084 29.9134 34.874 29.9134 34.8394 29.9477C34.805 29.9477 34.805 29.9821 34.805 29.9821C34.805 29.9821 34.7707 29.9821 34.7707 30.0165C34.7707 30.0165 34.7363 30.0508 34.7363 30.0854V30.1198C34.7363 30.1198 34.7019 30.1542 34.7019 30.1888C34.7019 30.1888 34.6676 30.1888 34.6676 30.2231C34.6332 30.2575 34.6332 30.2575 34.6332 30.2921V30.3265C34.5988 30.3955 34.5642 30.4642 34.5642 30.4988V30.6021C34.5642 30.6365 34.5299 30.6711 34.5299 30.7398V30.8432C34.5299 30.8432 34.5299 30.8775 34.4955 30.8775L34.4611 30.9119C34.4611 30.9463 34.4268 31.0152 34.4268 31.0496V31.2219L34.3924 31.2563V31.4629L34.358 31.4973C34.358 31.5317 34.358 31.5663 34.3924 31.6006C34.3924 31.635 34.358 31.704 34.358 31.7384C34.358 31.7727 34.3237 31.8417 34.3237 31.8761V32.1171C34.3237 32.1171 34.2893 32.1515 34.2893 32.1861V32.6681C34.2893 32.8058 34.2893 32.9094 34.3237 32.9782V33.0469C34.3237 33.0469 34.3237 33.0812 34.358 33.1159C34.358 33.1848 34.3924 33.2192 34.3924 33.2882C34.3924 33.3225 34.3924 33.3571 34.4268 33.3915C34.4611 33.4948 34.4611 33.5982 34.5301 33.6671C34.5301 33.7361 34.5301 33.8048 34.5645 33.8395C34.5645 33.8738 34.5645 33.9084 34.5988 33.9084C34.5988 33.9428 34.6332 33.9774 34.6332 34.0118C34.6676 34.0807 34.7022 34.1495 34.7022 34.1841V34.2184C34.7022 34.2528 34.7022 34.2528 34.7365 34.2874V34.3218C34.7709 34.3561 34.7709 34.4251 34.8055 34.4595V34.5284C34.8055 34.5628 34.8399 34.5628 34.8745 34.5974V34.6318C34.8745 34.6661 34.9089 34.7008 34.9089 34.7008C34.9089 34.7351 34.9432 34.7351 34.9432 34.7697V34.8387L35.0122 34.9077C35.0466 34.942 35.0812 34.9766 35.1155 34.9766V35.011H34.9432C34.9089 35.011 34.9089 35.011 34.8742 34.9766C34.8742 34.9766 34.8399 34.9423 34.8053 34.9423H34.7709L34.7365 34.9079C34.7022 34.9079 34.7022 34.8735 34.6676 34.8735C34.6332 34.8735 34.6332 34.8392 34.6332 34.8392C34.5988 34.8392 34.5988 34.8048 34.5642 34.8048C34.5299 34.8048 34.4953 34.7705 34.4609 34.7705C34.4265 34.7705 34.4265 34.7705 34.3919 34.7361L34.3576 34.7017C34.3232 34.7017 34.3232 34.7017 34.2886 34.6674H34.2542C34.1509 34.633 34.0819 34.564 34.0129 34.5297C33.9786 34.4953 33.944 34.4953 33.9096 34.4607H33.8752C33.8409 34.4263 33.7719 34.3917 33.7375 34.3917C33.7375 34.3573 33.7032 34.3573 33.6686 34.3573C33.6342 34.3573 33.6342 34.3573 33.6342 34.323C33.6342 34.323 33.5998 34.323 33.5998 34.2886C33.5655 34.2886 33.5655 34.2886 33.5309 34.2542L33.4275 34.1509C33.3932 34.1509 33.3932 34.1165 33.3586 34.1165C33.3242 34.1165 33.3242 34.0822 33.2896 34.0822L33.2552 34.0478C33.2208 34.0135 33.2208 34.0135 33.1862 33.9788C33.1519 33.9445 33.1173 33.9445 33.0829 33.9099C33.0485 33.8755 32.9796 33.8409 32.9796 33.8065L32.9108 33.7378C32.8419 33.6688 32.8075 33.6345 32.8075 33.5655L32.7042 33.4622C32.6698 33.4622 32.6698 33.4278 32.6698 33.4278V33.3934C32.6698 33.3591 32.6354 33.3245 32.6354 33.3245V33.2901C32.6354 33.2557 32.6011 33.2211 32.6011 33.2211V33.1524C32.6011 33.118 32.5667 33.118 32.5667 33.118C32.5667 33.118 32.5667 33.0837 32.5323 33.0837C32.5323 33.0493 32.5323 33.0493 32.498 33.0147C32.498 32.9803 32.4636 32.9803 32.4636 32.9803V32.946C32.4636 32.9116 32.4636 32.9116 32.4292 32.877V32.8083C32.4292 32.7739 32.4292 32.7739 32.3949 32.7739V32.7052C32.3605 32.6362 32.3605 32.6018 32.3259 32.5329C32.3259 32.5329 32.3259 32.4985 32.2915 32.4985V32.4298C32.2915 32.4298 32.2915 32.3954 32.2572 32.3608C32.2572 32.3264 32.2228 32.2918 32.2228 32.2918C32.2228 32.2918 32.2228 32.2575 32.1884 32.2228V32.1539C32.1884 32.0849 32.1541 32.0505 32.1541 32.0162V31.8441C32.1541 31.8097 32.1197 31.7751 32.1197 31.7408V31.6374C32.0853 31.5341 32.0853 31.4997 32.0507 31.4651V31.3964C32.0507 31.362 32.0507 31.3274 32.0164 31.2931C32.0164 31.2587 32.0164 31.2241 31.982 31.2241C31.982 31.1207 31.9476 31.0518 31.9476 30.9484C31.9476 30.8451 31.9133 30.7418 31.8787 30.6038C31.8443 30.4315 31.8097 30.3282 31.7753 30.1905V30.1561C31.7753 30.1217 31.741 30.0528 31.741 30.0184C31.741 29.984 31.741 29.9494 31.7066 29.9494C31.6722 29.8461 31.6722 29.7771 31.6722 29.7082C31.6722 29.6392 31.6379 29.5705 31.6379 29.5358C31.6379 29.5015 31.6035 29.4669 31.6035 29.4669C31.6035 29.4325 31.6379 29.4325 31.6035 29.3635C31.6035 29.3292 31.5691 29.2946 31.5691 29.2602V28.8469C31.5691 28.8469 31.5691 28.8125 31.5348 28.8125C31.5348 28.7435 31.5004 28.6402 31.5004 28.5712C31.5004 28.5022 31.5004 28.4335 31.466 28.3645C31.466 28.3302 31.4317 28.2956 31.4317 28.2956V28.1922C31.4317 28.1579 31.4317 28.0889 31.3973 28.0545C31.3973 28.0202 31.3973 27.9856 31.3629 27.9168C31.3629 27.8825 31.3973 27.8825 31.3973 27.8479V27.6755C31.3973 27.6755 31.4317 27.6412 31.3973 27.6066C31.3973 27.6066 31.3973 27.5722 31.3629 27.5722V26.2288C31.3629 26.0565 31.3973 25.8498 31.3629 25.7465V25.6778C31.3629 25.6434 31.3973 25.6434 31.3629 25.5744C31.3629 25.5401 31.3286 25.5055 31.3286 25.4367V23.9554C31.3286 23.7488 31.3629 23.5075 31.3629 23.3354V22.8877C31.3629 22.8533 31.3973 22.8533 31.3973 22.7844V22.681L31.4317 22.5777V22.4744C31.4317 22.4744 31.4317 22.44 31.466 22.4054C31.466 22.371 31.5004 22.3364 31.5004 22.3021V22.0264C31.5348 21.992 31.5348 21.9574 31.5348 21.9574L31.5691 21.9231C31.6035 21.8541 31.6725 21.8197 31.6725 21.7854C31.7068 21.7854 31.7068 21.7854 31.7414 21.751L31.8104 21.682V21.6477C31.8448 21.6133 31.9481 21.6133 32.0171 21.6133H32.3273C32.3963 21.6133 32.4307 21.6133 32.465 21.5789H32.7061C32.8784 21.5446 33.0507 21.5446 33.2228 21.5446H33.7741C33.8774 21.5446 34.0154 21.5446 34.1187 21.5102C34.36 21.4758 34.532 21.4758 34.8077 21.5102C34.9454 21.5102 35.0833 21.5446 35.221 21.5446C35.2554 21.5446 35.29 21.5446 35.29 21.5102C35.359 21.5102 35.4277 21.5446 35.5313 21.5446H35.8069L35.8413 21.5789H35.979C36.048 21.6133 36.1513 21.5789 36.2203 21.5789H36.358C36.3923 21.6133 36.4269 21.6133 36.4269 21.5789H36.8403C36.9093 21.5789 36.978 21.6133 37.047 21.5789H37.0813C37.1157 21.5789 37.1847 21.5789 37.219 21.5446C37.2534 21.5446 37.2534 21.5102 37.2534 21.5102H37.4255C37.4598 21.5446 37.4944 21.5446 37.4944 21.5446H37.5634C37.5978 21.5446 37.5978 21.5446 37.6324 21.5102C37.7014 21.5102 37.7701 21.5102 37.8047 21.5446C37.8391 21.5446 37.908 21.5446 37.9424 21.5789C38.0457 21.5789 38.0801 21.6133 38.1147 21.6133H38.2524L38.2868 21.6477C38.6314 21.7166 38.9068 21.7854 39.0791 21.8889C39.1135 21.9579 39.1135 22.0613 39.1481 22.1302C39.1481 22.1992 39.1481 22.2679 39.1825 22.3025C39.1825 22.3715 39.2168 22.4059 39.2514 22.4402C39.2858 22.4746 39.2858 22.5092 39.2858 22.5779C39.2858 22.6123 39.2858 22.6813 39.3202 22.7156C39.3202 22.7846 39.3202 22.8533 39.3545 22.888C39.3545 22.9569 39.3889 22.9913 39.4235 22.9913C39.5268 23.4046 39.5612 23.7492 39.5958 24.2316V24.3349C39.5614 24.3693 39.5958 24.4039 39.5958 24.4382V24.5072C39.5958 24.5072 39.5958 24.5416 39.6302 24.5762V25.127C39.6302 25.1613 39.6302 25.196 39.6645 25.196V25.4026C39.6645 25.4026 39.6302 25.437 39.6302 25.4716C39.5242 25.2289 39.5242 25.2289 39.5242 25.2633Z" fill="white"></path></svg>