<svg xmlns="http://www.w3.org/2000/svg" xmlns:xlink="http://www.w3.org/1999/xlink" id="Layer_1" x="0px" y="0px" viewBox="0 0 63 67" style="enable-background:new 0 0 63 67;" xml:space="preserve"><style type="text/css">	.st0{fill:#FAC447;}</style><g>	<path class="st0" d="M57.9,42.4c-0.7-1.5-1.8-2.7-3.3-3.4c0,0-0.1-0.1-0.1-0.1c-0.8-0.5-4.5-2.4-11.2-5.5c-0.9-0.5-1.7-1.1-2.3-1.8  l0,0c-0.5-0.7-0.9-1.4-1.1-2.2c-0.5-2.1-2.1-7.5-4.8-16.1c-0.3-0.9-1.2-1.4-2.1-1.1c-0.4,0.1-0.8,0.4-1,0.8  C31.4,13,31,13.4,30.8,14c-0.4,1.2-1.1,7.2-2.2,17.8c0,0.6-0.2,1.1-0.3,1.6c0,0-0.1,0.1-0.1,0.1h-0.1l-11.3,2.8h-0.1  c-1.9,0.2-3.8,0.6-5.7,1.2c-0.6,0.2-1,0.7-1,1.3c-0.1,0.6,0.1,1.2,0.6,1.6c5.8,3.7,12,4.8,18.5,7.2c0,0.1,0.1,0.3,0.1,0.4l2.9,16  c0.1,0.6,0.2,1.1,0.4,1.6c0.2,0.8,1,1.3,1.8,1.4c0.1,0,0.3,0,0.4,0c0.4-0.1,0.7-0.2,1-0.4c0.1-0.1,0.1-0.1,0.2-0.2v0  c1.7-1.5,4-8.3,7.1-20.3c4-0.4,8.1-0.6,12.2-0.5h0.1c0.3,0,0.6,0,0.8-0.1c1.1-0.1,1.9-1.1,1.9-2.2v-0.1c0-0.1,0-0.2,0-0.3  C57.9,42.6,57.9,42.5,57.9,42.4z"></path>	<path class="st0" d="M10.3,24c0.4,0,0.7-0.3,0.8-0.6c0.1-0.2,0.2-0.5,0.2-0.7l1.3-7c0-0.1,0-0.1,0-0.2h0c2.8-1,5.5-2.4,8.1-4  c0.2-0.2,0.3-0.4,0.3-0.7c0-0.3-0.2-0.5-0.5-0.6v0c-0.8-0.3-1.6-0.5-2.5-0.5h0l-5-0.3h0c0,0,0,0,0,0c-0.1-0.2-0.1-0.5-0.1-0.7  c-0.5-4.7-0.8-7.3-0.9-7.8v0c-0.1-0.2-0.3-0.4-0.5-0.5C11.3,0.2,11.2,0.1,11,0c-0.4-0.1-0.8,0.1-0.9,0.5c-1.2,3.8-1.9,6.1-2.1,7  c-0.1,0.3-0.3,0.7-0.5,1l0,0c-0.3,0.3-0.6,0.6-1,0.8c-2.9,1.3-4.5,2.2-4.9,2.4c0,0,0,0-0.1,0.1c-0.6,0.3-1.1,0.9-1.4,1.5  c0,0.1,0,0.1,0,0.2c0,0,0,0.1,0,0.1v0c0,0.5,0.3,0.9,0.8,1c0.1,0,0.2,0,0.4,0h0c1.8,0,3.6,0,5.3,0.2c1.4,5.3,2.4,8.2,3.1,8.9v0  c0,0,0.1,0,0.1,0.1C9.9,23.9,10,24,10.2,24C10.2,24,10.3,24,10.3,24z"></path>	<path class="st0" d="M62.5,17.3c-0.1,0-0.2,0-0.2,0h0c-1.2,0-2.4,0-3.5-0.1c-0.9-3.5-1.6-5.5-2.1-5.9v0c0,0,0,0-0.1,0  c-0.1-0.1-0.2-0.1-0.3-0.1c0,0-0.1,0-0.1,0c-0.2,0-0.4,0.2-0.5,0.4c-0.1,0.1-0.1,0.3-0.1,0.5l-0.8,4.6c0,0,0,0.1,0,0.1h0  c-1.9,0.7-3.7,1.6-5.4,2.7C49,19.4,49,19.6,49,19.8c0,0.2,0.1,0.3,0.3,0.4v0c0.5,0.2,1.1,0.3,1.7,0.4h0l3.3,0.2h0c0,0,0,0,0,0  c0.1,0.2,0.1,0.3,0.1,0.5c0.3,3.1,0.5,4.8,0.6,5.2v0c0.1,0.2,0.2,0.3,0.3,0.3c0.1,0.1,0.2,0.2,0.3,0.2c0.3,0.1,0.5-0.1,0.6-0.3  c0.8-2.5,1.3-4.1,1.4-4.7c0.1-0.2,0.2-0.4,0.3-0.6l0,0c0.2-0.2,0.4-0.4,0.7-0.5c1.9-0.9,3-1.4,3.3-1.6c0,0,0,0,0,0  c0.4-0.2,0.7-0.6,1-1c0,0,0-0.1,0-0.1c0,0,0-0.1,0-0.1v0C63,17.6,62.8,17.3,62.5,17.3z"></path></g></svg>