<svg width="360" height="110" viewBox="0 0 360 110" fill="none" xmlns="http://www.w3.org/2000/svg">
<path d="M184.763 26.1982H199.394L199.111 28.4648H192.976L189.954 50.5568H187.505L190.527 28.4648H184.581L184.763 26.1982Z" fill="#002A4E"/>
<path d="M217.336 42.0594H201.19C201.19 44.2304 201.757 45.9292 202.89 47.1557C204.023 48.3834 205.534 49.0445 207.514 49.0445C208.72 49.0411 209.912 48.7837 211.012 48.289C212.07 47.8113 212.982 47.0618 213.656 46.1169L215.356 47.5335C214.462 48.6857 213.293 49.5949 211.956 50.1778C210.537 50.8601 208.984 51.2185 207.409 51.2271C204.579 51.2271 202.407 50.3772 200.99 48.5828C199.588 46.9187 198.819 44.8127 198.818 42.6366C198.825 40.813 199.308 39.0228 200.217 37.4424C201.137 35.82 202.487 34.4826 204.118 33.5773C205.687 32.6447 207.483 32.1608 209.308 32.1782C211.575 32.1782 213.558 32.9337 215.069 34.5357C216.58 36.1408 217.395 38.2784 217.336 40.4819C217.525 40.9227 217.43 41.3984 217.336 42.0594ZM215.258 40.0762C215.164 38.3763 214.597 36.9597 213.558 35.9208C212.439 34.8591 210.945 34.2821 209.403 34.3153C207.676 34.2786 205.985 34.8094 204.59 35.8264C203.199 36.8669 202.174 38.3218 201.662 39.9818H215.258V40.0762Z" fill="#002A4E"/>
<path d="M231.588 34.6002L230.361 36.489C229.311 35.0899 228.098 34.3169 226.776 34.3169C226.017 34.3225 225.283 34.5893 224.698 35.0724C224.45 35.2848 224.247 35.5446 224.101 35.8365C223.955 36.1284 223.869 36.4466 223.848 36.7723C223.874 37.2786 224.037 37.7682 224.32 38.1889C224.698 38.6611 225.453 39.2383 226.587 39.9833C228.287 41.1166 229.42 42.061 229.983 42.9109C230.559 43.7759 230.855 44.7964 230.833 45.8351C230.839 46.541 230.7 47.2406 230.425 47.8905C230.149 48.5404 229.743 49.1266 229.231 49.6127C228.182 50.662 226.783 51.1237 225.076 51.1237C222.809 51.1237 220.92 50.1793 219.409 48.1961L220.826 46.5906C222.148 48.1961 223.659 49.0391 225.17 49.0391C225.608 49.0545 226.044 48.9785 226.45 48.8159C226.857 48.6532 227.225 48.4076 227.531 48.0947C228.192 47.4336 228.58 46.7725 228.58 45.9225C228.542 45.1999 228.277 44.5075 227.825 43.9428C227.542 43.565 226.597 42.8934 225.275 41.9595C223.764 40.9102 222.725 40.0707 222.253 39.4096C221.767 38.7534 221.502 37.9596 221.497 37.1431C221.485 36.5003 221.614 35.8626 221.875 35.2751C222.136 34.6877 222.523 34.1647 223.008 33.7432C224.039 32.8049 225.393 32.3033 226.786 32.3441C227.636 32.3318 228.476 32.5263 229.234 32.9108C230.172 32.9982 230.833 33.6593 231.588 34.6002Z" fill="#002A4E"/>
<path d="M239.248 25.8213H241.511L240.57 32.621H244.25L243.966 34.6007H240.276L238.104 50.652H235.75L237.922 34.6007H234.806L235.089 32.621H238.199L239.248 25.8213Z" fill="#002A4E"/>
<path d="M247.451 32.6206H249.623L247.356 50.6517H245.09L247.451 32.6206ZM249.34 25.1599C249.587 25.162 249.831 25.2133 250.058 25.3105C250.285 25.4078 250.49 25.5492 250.662 25.7265C250.875 25.9456 251.032 26.2138 251.118 26.5076C251.204 26.8014 251.217 27.1118 251.155 27.4115C251.093 27.7113 250.958 27.9913 250.763 28.227C250.568 28.4626 250.318 28.6468 250.035 28.7634C249.752 28.8799 249.444 28.9253 249.14 28.8954C248.835 28.8656 248.542 28.7615 248.287 28.5922C248.032 28.423 247.823 28.1937 247.677 27.9246C247.531 27.6555 247.453 27.3547 247.451 27.0487C247.453 26.8017 247.504 26.5577 247.601 26.3307C247.699 26.1038 247.84 25.8984 248.017 25.7265C248.184 25.5419 248.388 25.3956 248.616 25.2978C248.845 25.1999 249.091 25.1529 249.34 25.1599V25.1599Z" fill="#002A4E"/>
<path d="M254.719 32.6206H256.986L256.608 35.4503C258.402 33.2817 260.574 32.1484 263.03 32.1484C264.916 32.1484 266.432 32.7139 267.577 33.8449C268.71 34.9781 269.277 36.4892 269.277 38.4724C269.245 39.7706 269.119 41.0647 268.899 42.3445L267.766 50.6517H265.482L266.615 42.3445C266.84 41.0336 266.966 39.7077 266.993 38.378C267.03 37.8229 266.949 37.2661 266.754 36.7451C266.558 36.2241 266.254 35.7509 265.861 35.3573C265.467 34.9638 264.994 34.6589 264.474 34.4631C263.953 34.2674 263.396 34.1854 262.841 34.2226C261.64 34.1995 260.458 34.5278 259.441 35.167C258.422 35.7952 257.579 36.6727 256.993 37.7169C256.426 38.7662 255.943 40.4557 255.67 42.8167L254.621 50.6517H252.354L254.719 32.6206Z" fill="#002A4E"/>
<path d="M290.787 32.6196H293.053L290.976 47.9189C290.598 50.3674 290.22 52.0743 289.748 53.1131C289.019 54.5254 287.906 55.7028 286.537 56.5095C284.889 57.4105 283.035 57.8662 281.157 57.8316C279.08 57.8316 277.38 57.4539 275.963 56.6039C274.52 55.7761 273.368 54.5244 272.661 53.0187L274.735 52.2632C275.963 54.5297 278.135 55.663 281.157 55.663C282.571 55.7208 283.975 55.3944 285.218 54.7186C286.252 54.1543 287.102 53.3044 287.667 52.2702C287.95 51.7035 288.233 50.3814 288.611 48.3037L288.705 47.6426C287.818 48.6705 286.715 49.4909 285.476 50.0458C284.236 50.6006 282.889 50.8764 281.532 50.8536C279.083 50.8536 276.984 50.0981 275.487 48.587C273.99 47.076 273.224 45.0892 273.224 42.6408C273.221 40.8456 273.705 39.0832 274.623 37.541C275.535 35.9647 276.847 34.6568 278.425 33.7494C279.906 32.8594 281.595 32.3767 283.322 32.3503C284.643 32.3145 285.948 32.6412 287.096 33.2947C288.324 34.0123 289.361 35.0154 290.119 36.2189L290.787 32.6196ZM283.896 34.3161C282.404 34.3109 280.937 34.702 279.646 35.4493C278.401 36.1451 277.359 37.1543 276.624 38.377C275.892 39.6365 275.528 41.0763 275.575 42.5323C275.575 44.3279 276.141 45.7433 277.275 46.7787C278.408 47.828 279.919 48.3841 281.822 48.3841C282.885 48.4133 283.942 48.2276 284.932 47.8381C285.921 47.4487 286.821 46.8634 287.579 46.1176C288.324 45.3787 288.909 44.495 289.299 43.521C289.689 42.547 289.875 41.5034 289.846 40.4547C289.846 38.4714 289.185 36.8659 287.957 35.8271C286.815 34.8762 285.382 34.3432 283.896 34.3161V34.3161Z" fill="#002A4E"/>
<path d="M201.094 60.1865L200.716 62.5475H189.765L188.715 70.5715H199.667L199.384 72.9325H188.442L187.215 82.2785H198.166L197.883 84.6396H184.479L187.781 60.1865H201.094Z" fill="#002A4E"/>
<path d="M202.321 66.6084H204.969L209.31 73.6879L214.504 66.6084H217.337L210.632 75.7656L216.106 84.6465H213.462L209.212 77.6509L204.115 84.6465H201.282L207.89 75.5837L202.321 66.6084Z" fill="#002A4E"/>
<path d="M238.008 70.4773L236.119 71.6106C234.797 69.4385 232.719 68.3997 229.98 68.3997C228.471 68.3998 226.983 68.7595 225.639 69.449C224.367 70.1419 223.294 71.15 222.523 72.3766C221.786 73.5985 221.399 75 221.407 76.4271C221.385 77.6144 221.679 78.7864 222.257 79.8234C222.79 80.8288 223.613 81.6512 224.618 82.1844C225.692 82.7639 226.896 83.0567 228.116 83.0344C229.475 83.046 230.82 82.7607 232.058 82.1984C233.286 81.6318 234.325 80.9707 234.986 80.0263L236.874 81.3485C235.814 82.5724 234.49 83.541 233.002 84.1817C231.446 84.8098 229.783 85.1305 228.105 85.1261C225.272 85.1261 223.006 84.3705 221.4 82.7651C219.795 81.1596 219.039 79.1763 219.039 76.5355C219.019 75.1586 219.286 73.7925 219.822 72.5243C220.359 71.2561 221.153 70.1134 222.156 69.1692C223.182 68.1787 224.395 67.4018 225.723 66.8837C227.052 66.3655 228.471 66.1163 229.896 66.1506C231.565 66.12 233.215 66.5047 234.699 67.2699C236.083 68.005 237.23 69.1171 238.008 70.4773V70.4773Z" fill="#002A4E"/>
<path d="M259.443 76.0508H243.297C243.297 78.2241 243.864 79.9228 244.997 81.1471C246.131 82.3748 247.642 83.0359 249.625 83.0359C250.831 83.033 252.023 82.7755 253.123 82.2803C254.179 81.7997 255.089 81.0478 255.76 80.1012L257.46 81.5003C256.566 82.6525 255.397 83.5618 254.06 84.1447C252.641 84.8275 251.088 85.1859 249.513 85.194C246.68 85.194 244.508 84.344 243.091 82.5497C241.689 80.8853 240.92 78.7795 240.919 76.6034C240.926 74.7799 241.408 72.9896 242.318 71.4092C243.23 69.7886 244.569 68.4494 246.19 67.5372C247.762 66.606 249.558 66.1222 251.384 66.1381C253.647 66.1381 255.631 66.8936 257.142 68.4956C258.652 70.1007 259.467 72.2382 259.408 74.4418C259.515 74.9718 259.527 75.5166 259.443 76.0508V76.0508ZM257.271 74.0675C257.177 72.3676 256.61 70.951 255.571 69.9122C254.453 68.851 252.961 68.274 251.419 68.3067C249.689 68.2684 247.995 68.7993 246.596 69.8177C245.205 70.8582 244.18 72.3131 243.668 73.9731H257.264L257.271 74.0675Z" fill="#002A4E"/>
<path d="M265.766 59.6201H268.032L264.632 84.6468H262.369L265.766 59.6201Z" fill="#002A4E"/>
<path d="M272.565 59.6201H274.829L271.429 84.6468H269.162L272.565 59.6201Z" fill="#002A4E"/>
<path d="M295.128 76.0485H278.982C278.982 78.2218 279.548 79.9206 280.682 81.1448C281.815 82.3725 283.326 83.0336 285.309 83.0336C286.515 83.0303 287.707 82.7729 288.807 82.2781C289.865 81.8004 290.777 81.0509 291.451 80.106L293.151 81.5051C292.257 82.6572 291.088 83.5665 289.752 84.1494C288.332 84.8318 286.779 85.1902 285.204 85.1987C282.371 85.1987 280.199 84.3488 278.782 82.5544C277.381 80.89 276.611 78.7842 276.61 76.6082C276.617 74.7846 277.1 72.9944 278.009 71.4139C278.933 69.7908 280.286 68.4535 281.92 67.5489C283.49 66.6181 285.285 66.1343 287.111 66.1498C289.377 66.1498 291.36 66.9053 292.872 68.5073C294.382 70.1124 295.197 72.25 295.138 74.4535C295.229 74.9817 295.225 75.5216 295.128 76.0485V76.0485ZM292.955 74.0653C292.861 72.3653 292.294 70.9487 291.256 69.9099C290.136 68.8482 288.643 68.2712 287.1 68.3044C285.374 68.2682 283.683 68.799 282.287 69.8155C280.896 70.856 279.871 72.3108 279.36 73.9708H292.955V74.0653Z" fill="#002A4E"/>
<path d="M300.98 66.6079H303.257L302.879 69.4377C304.673 67.269 306.846 66.1357 309.298 66.1357C311.186 66.1357 312.702 66.7012 313.845 67.8322C314.978 68.9654 315.545 70.4765 315.545 72.4597C315.507 73.7583 315.375 75.0524 315.149 76.3318L314.009 84.646H311.742L312.876 76.3388C313.101 75.0279 313.227 73.702 313.254 72.3723C313.293 71.816 313.212 71.2578 313.018 70.7352C312.823 70.2127 312.518 69.738 312.124 69.3432C311.731 68.9484 311.257 68.6426 310.735 68.4465C310.213 68.2504 309.654 68.1685 309.098 68.2064C307.898 68.1832 306.718 68.5115 305.702 69.1508C304.682 69.779 303.84 70.6566 303.253 71.7007C302.687 72.7501 302.204 74.4395 301.931 76.8005L300.882 84.6355H298.615L300.98 66.6079Z" fill="#002A4E"/>
<path d="M338.466 70.4774L336.577 71.6107C335.255 69.4385 333.177 68.3997 330.442 68.3997C328.931 68.3994 327.442 68.7591 326.098 69.449C324.825 70.142 323.752 71.1501 322.981 72.3767C322.236 73.5998 321.843 75.0053 321.848 76.4376C321.826 77.625 322.119 78.7969 322.698 79.834C323.231 80.8393 324.053 81.6617 325.059 82.195C326.132 82.7745 327.337 83.0672 328.557 83.0449C329.922 83.0558 331.274 82.7669 332.516 82.1985C333.744 81.6318 334.783 80.9707 335.444 80.0263L337.333 81.3485C336.272 82.5725 334.948 83.541 333.461 84.1817C331.905 84.8101 330.242 85.1309 328.564 85.1261C325.73 85.1261 323.464 84.3706 321.858 82.7651C320.253 81.1596 319.497 79.1764 319.497 76.5355C319.477 75.1586 319.744 73.7926 320.28 72.5243C320.817 71.2561 321.611 70.1135 322.614 69.1692C323.64 68.1785 324.854 67.4015 326.183 66.8833C327.512 66.3651 328.932 66.1161 330.358 66.1506C332.032 66.1225 333.686 66.512 335.171 67.2839C336.548 68.0173 337.69 69.1242 338.466 70.4774V70.4774Z" fill="#002A4E"/>
<path d="M359.892 76.0497H343.746C343.746 78.223 344.313 79.9217 345.446 81.146C346.579 82.3737 348.09 83.0348 350.074 83.0348C351.28 83.0322 352.472 82.7747 353.571 82.2792C354.629 81.8016 355.542 81.0521 356.216 80.1071L357.916 81.5062C357.022 82.6584 355.853 83.5677 354.516 84.1506C353.102 84.8309 351.555 85.1893 349.986 85.1999C347.153 85.1999 344.981 84.3499 343.564 82.5556C342.163 80.8909 341.395 78.785 341.396 76.6093C341.403 74.7858 341.885 72.9955 342.795 71.4151C343.707 69.7945 345.046 68.4552 346.667 67.5431C348.238 66.6118 350.034 66.128 351.861 66.1439C354.124 66.1439 356.107 66.8995 357.618 68.5014C359.129 70.1066 359.944 72.2441 359.885 74.4477C360.081 74.9164 359.986 75.3886 359.892 76.0497ZM357.814 74.0664C357.72 72.3665 357.153 70.9499 356.114 69.9111C354.996 68.8498 353.504 68.2729 351.962 68.3056C350.235 68.2688 348.543 68.7996 347.146 69.8166C345.755 70.8571 344.73 72.312 344.218 73.972H357.821L357.814 74.0664Z" fill="#002A4E"/>
<path d="M156.399 96.462C156.405 97.1826 156.263 97.8968 155.983 98.5607C155.583 99.5313 154.9 100.36 154.024 100.938C153.148 101.517 152.118 101.819 151.068 101.807C150.339 101.816 149.615 101.68 148.938 101.408C148.313 101.158 147.748 100.78 147.277 100.299C146.805 99.817 146.435 99.2448 146.189 98.6166C145.922 97.941 145.789 97.2199 145.797 96.4935C145.789 95.7891 145.922 95.0901 146.186 94.4374C146.451 93.7846 146.843 93.1911 147.34 92.6914C147.824 92.2082 148.398 91.8244 149.029 91.5616C149.693 91.2827 150.408 91.1422 151.128 91.1488C151.858 91.1402 152.583 91.2757 153.262 91.5476C153.886 91.8016 154.453 92.1774 154.93 92.6529C155.401 93.1338 155.77 93.7048 156.014 94.3318C156.279 95.0103 156.41 95.7337 156.399 96.462V96.462ZM155.35 96.5459C155.357 95.9192 155.248 95.2965 155.028 94.7096C154.825 94.1891 154.522 93.7137 154.136 93.3105C153.755 92.9179 153.296 92.6094 152.789 92.4045C152.257 92.1919 151.688 92.085 151.114 92.0897C150.513 92.0843 149.918 92.2034 149.365 92.4395C148.855 92.6622 148.395 92.9844 148.011 93.3874C147.635 93.7872 147.34 94.2565 147.144 94.769C146.936 95.3005 146.83 95.8667 146.833 96.4375C146.825 97.0646 146.935 97.6876 147.158 98.2738C147.358 98.7946 147.66 99.2703 148.046 99.6729C148.424 100.065 148.881 100.373 149.386 100.575C150.499 101.01 151.737 100.999 152.842 100.544C153.352 100.323 153.813 100 154.195 99.596C154.571 99.1966 154.865 98.7272 155.059 98.2144C155.262 97.6791 155.364 97.1111 155.36 96.5389L155.35 96.5459ZM153.555 99.1693C153.559 99.2018 153.559 99.2347 153.555 99.2672C153.547 99.2834 153.535 99.2975 153.521 99.3084C153.506 99.3194 153.489 99.3268 153.471 99.3302C153.404 99.3471 153.335 99.3588 153.265 99.3651C153.142 99.3719 153.018 99.3719 152.894 99.3651C152.785 99.3712 152.675 99.3712 152.565 99.3651C152.491 99.359 152.418 99.3425 152.349 99.3162C152.298 99.2955 152.253 99.2645 152.216 99.2252C152.178 99.1806 152.152 99.1279 152.139 99.0713L151.831 98.0745C151.755 97.777 151.599 97.5061 151.38 97.291C151.149 97.1233 150.867 97.0428 150.582 97.0636H150.19V99.1413C150.192 99.1777 150.184 99.2138 150.167 99.2459C150.15 99.278 150.124 99.3047 150.093 99.3232C149.938 99.3719 149.775 99.3909 149.613 99.3791C149.443 99.3905 149.273 99.3715 149.11 99.3232C149.075 99.3073 149.046 99.2816 149.026 99.2492C149.006 99.2168 148.996 99.1793 148.998 99.1413V93.9646C148.99 93.811 149.037 93.6596 149.131 93.5378C149.183 93.4817 149.247 93.4381 149.319 93.4103C149.39 93.3824 149.467 93.371 149.543 93.3769H151.044C151.387 93.3719 151.728 93.4095 152.062 93.4888C152.315 93.5505 152.553 93.6623 152.761 93.8176C152.943 93.9561 153.085 94.1393 153.174 94.3493C153.266 94.5709 153.313 94.8089 153.311 95.0489C153.321 95.2396 153.294 95.4305 153.23 95.6106C153.166 95.7907 153.068 95.9564 152.94 96.0982C152.663 96.3596 152.321 96.5409 151.95 96.6229C152.185 96.7039 152.4 96.8352 152.579 97.0076C152.809 97.2412 152.986 97.5216 153.097 97.8296L153.464 98.781C153.507 98.9071 153.536 99.0372 153.552 99.1693H153.555ZM151.999 95.1993C151.999 95.0924 151.983 94.9862 151.95 94.8845C151.915 94.7844 151.855 94.6952 151.775 94.6256C151.674 94.5408 151.554 94.4809 151.425 94.4507C151.245 94.4043 151.059 94.3832 150.873 94.3878H150.173V96.0982H150.845C151.167 96.1328 151.49 96.0454 151.751 95.8534C151.836 95.7675 151.902 95.6652 151.947 95.5528C151.991 95.4404 152.013 95.3201 152.009 95.1993H151.999Z" fill="#9E0442"/>
<path fill-rule="evenodd" clip-rule="evenodd" d="M158.826 46.7129C158.826 27.678 147.07 10.7627 128.882 0C150.823 10.4934 165.444 29.196 165.426 50.5115C165.426 83.3557 130.861 109.974 88.2164 109.974C65.2114 109.974 44.571 102.209 30.4225 89.9176C44.0568 99.6379 62.3013 105.584 82.3471 105.584C124.59 105.584 158.826 79.2423 158.826 46.7129ZM36.5519 109.983C14.6172 99.4934 0 80.7978 0 59.4613C0 26.6346 34.5686 0.0234245 77.2136 0.0234245C100.222 0.0234245 120.869 7.77801 135.011 20.0657C121.377 10.3419 103.129 4.39566 83.0864 4.39566C40.8471 4.39566 6.60732 30.7445 6.60732 63.2739C6.60732 82.3088 18.3634 99.2206 36.5519 109.983Z" fill="#9E0442"/>
<path d="M67.635 63.9472C65.5736 65.9362 62.7579 66.9319 59.1878 66.9343C55.6177 66.9366 52.8043 65.9409 50.7476 63.9472C48.649 61.9534 47.6241 59.1937 47.6241 55.6469C47.6241 52.1002 48.6734 49.3509 50.7476 47.3607C52.8218 45.3704 55.6445 44.3596 59.1878 44.3596C62.7311 44.3596 65.5468 45.3564 67.6245 47.3467C69.7022 49.3369 70.7305 52.1036 70.7305 55.6469C70.7305 59.1902 69.6812 61.9429 67.635 63.9472ZM59.7999 39.1129C54.7071 39.1129 50.6485 40.9364 47.6241 44.5834V39.8929H41.9717V82.5484H47.6311V66.6859C50.8118 70.3096 54.8505 72.1191 59.7475 72.1145C64.747 72.1145 68.8207 70.6058 71.9687 67.5883C75.1167 64.5709 76.6907 60.5858 76.6907 55.6329C76.6907 50.6707 75.1214 46.6786 71.9827 43.6565C68.8522 40.6309 64.7843 39.1094 59.8069 39.1094L59.7999 39.1129Z" fill="#002A4E"/>
<path d="M108.855 55.7835C107.407 54.7271 105.041 53.9331 101.755 53.4015L94.9238 52.2787C92.6223 51.8974 91.0972 51.5616 90.3767 51.2748C88.6837 50.5753 87.8373 49.4385 87.8373 47.889C87.8373 45.0627 90.5481 43.6473 95.9696 43.6426C101.657 43.6426 104.688 45.5454 105.064 49.351H110.611V49.1202C110.611 45.3705 109.079 42.6259 106.015 40.8864C103.602 39.5129 100.355 38.8262 96.2739 38.8262C86.8322 38.8262 82.1137 42.1876 82.1184 48.9103C82.1184 51.8554 83.2657 54.0101 85.5882 55.3707C87.0083 56.1962 89.5372 56.9167 93.1679 57.5498L100.209 58.7636C102.014 59.0924 103.256 59.4142 103.917 59.7185C105.221 60.3481 105.882 61.3275 105.882 62.6496C105.882 65.8326 102.618 67.4229 96.0886 67.4206C90.4921 67.4206 87.4245 65.3219 86.8859 61.1246H80.6318C81.3314 68.6961 86.4836 72.4796 96.0886 72.4749C100.33 72.4749 103.781 71.836 106.442 70.5581C109.996 68.8442 111.773 66.095 111.773 62.3103C111.773 59.3652 110.8 57.1919 108.855 55.7905V55.7835Z" fill="#002A4E"/>
<path d="M118.163 71.3412H123.822V39.8926H118.163V71.3412Z" fill="#002A4E"/>
<path d="M118.163 35.7837H123.822V28.8721H118.163V35.7837Z" fill="#20262C"/>
</svg>
